<?xml version="1.0" encoding="UTF-8" standalone="no"?>
<!DOCTYPE svg PUBLIC "-//W3C//DTD SVG 1.1//EN"
 "http://www.w3.org/Graphics/SVG/1.1/DTD/svg11.dtd">
<!-- Generated by graphviz version 12.2.1 (20241206.2353)
 -->
<!-- Pages: 1 -->
<svg width="2892pt" height="277pt"
 viewBox="0.00 0.00 2892.05 276.71" xmlns="http://www.w3.org/2000/svg" xmlns:xlink="http://www.w3.org/1999/xlink">
<g id="graph0" class="graph" transform="scale(1 1) rotate(0) translate(4 272.71)">
<polygon fill="lightgray" stroke="none" points="-4,4 -4,-272.71 2888.05,-272.71 2888.05,4 -4,4"/>
<!-- ML -->
<g id="node1" class="node">
<title>ML</title>
<ellipse fill="lightblue" stroke="lightblue" stroke-width="2" cx="591.9" cy="-241.55" rx="79.23" ry="27.15"/>
<text text-anchor="middle" x="591.9" y="-244.05" font-family="Arial Bold" font-size="10.00">Machine Learning</text>
<text text-anchor="middle" x="591.9" y="-232.05" font-family="Arial Bold" font-size="10.00">(Day 1 + Day 2)</text>
</g>
<!-- EDA -->
<g id="node2" class="node">
<title>EDA</title>
<polygon fill="orange" stroke="orange" points="378.93,-143.2 236.88,-143.2 236.88,-107.2 378.93,-107.2 378.93,-143.2"/>
<text text-anchor="middle" x="307.9" y="-121.7" font-family="Arial" font-size="10.00">Exploratory Data Analysis</text>
</g>
<!-- ML&#45;&gt;EDA -->
<g id="edge23" class="edge">
<title>ML&#45;&gt;EDA</title>
<path fill="none" stroke="blue" stroke-dasharray="5,2" d="M512.03,-242C428.03,-242 307.9,-242 307.9,-242 307.9,-242 307.9,-152.96 307.9,-152.96"/>
<polygon fill="blue" stroke="blue" points="310.7,-152.96 307.9,-144.96 305.1,-152.96 310.7,-152.96"/>
</g>
<!-- Unsupervised Learning -->
<g id="node3" class="node">
<title>Unsupervised Learning</title>
<polygon fill="lightyellow" stroke="lightyellow" points="565.18,-143.2 436.63,-143.2 436.63,-107.2 565.18,-107.2 565.18,-143.2"/>
<text text-anchor="middle" x="500.9" y="-121.7" font-family="Arial" font-size="10.00">Unsupervised Learning</text>
</g>
<!-- ML&#45;&gt;Unsupervised Learning -->
<g id="edge22" class="edge">
<title>ML&#45;&gt;Unsupervised Learning</title>
<path fill="none" stroke="blue" stroke-dasharray="5,2" d="M538.92,-220.48C538.92,-220.48 538.92,-152.95 538.92,-152.95"/>
<polygon fill="blue" stroke="blue" points="541.72,-152.95 538.92,-144.95 536.12,-152.95 541.72,-152.95"/>
</g>
<!-- Supervised Learning -->
<g id="node4" class="node">
<title>Supervised Learning</title>
<polygon fill="lightgreen" stroke="lightgreen" points="740.55,-143.2 623.25,-143.2 623.25,-107.2 740.55,-107.2 740.55,-143.2"/>
<text text-anchor="middle" x="681.9" y="-121.7" font-family="Arial" font-size="10.00">Supervised Learning</text>
</g>
<!-- ML&#45;&gt;Supervised Learning -->
<g id="edge21" class="edge">
<title>ML&#45;&gt;Supervised Learning</title>
<path fill="none" stroke="blue" stroke-dasharray="5,2" d="M647.19,-221.29C647.19,-221.29 647.19,-152.84 647.19,-152.84"/>
<polygon fill="blue" stroke="blue" points="649.99,-152.84 647.19,-144.84 644.39,-152.84 649.99,-152.84"/>
</g>
<!-- Regression -->
<g id="node7" class="node">
<title>Regression</title>
<polygon fill="pink" stroke="pink" points="877.05,-143.2 798.75,-143.2 798.75,-107.2 877.05,-107.2 877.05,-143.2"/>
<text text-anchor="middle" x="837.9" y="-121.7" font-family="Arial" font-size="10.00">Regression</text>
</g>
<!-- ML&#45;&gt;Regression -->
<g id="edge24" class="edge">
<title>ML&#45;&gt;Regression</title>
<path fill="none" stroke="blue" stroke-dasharray="5,2" d="M635.6,-218C706.29,-218 837.9,-218 837.9,-218 837.9,-218 837.9,-153.05 837.9,-153.05"/>
<polygon fill="blue" stroke="blue" points="840.7,-153.05 837.9,-145.05 835.1,-153.05 840.7,-153.05"/>
</g>
<!-- EDA_Scatter -->
<g id="node12" class="node">
<title>EDA_Scatter</title>
<polygon fill="lightgrey" stroke="black" points="85.8,-36 0,-36 0,0 85.8,0 85.8,-36"/>
<text text-anchor="middle" x="42.9" y="-14.5" font-family="Arial" font-size="10.00">Scatter Plots</text>
</g>
<!-- EDA&#45;&gt;EDA_Scatter -->
<g id="edge5" class="edge">
<title>EDA&#45;&gt;EDA_Scatter</title>
<path fill="none" stroke="black" d="M236.54,-125C158.05,-125 42.9,-125 42.9,-125 42.9,-125 42.9,-45.66 42.9,-45.66"/>
<polygon fill="black" stroke="black" points="45.7,-45.66 42.9,-37.66 40.1,-45.66 45.7,-45.66"/>
</g>
<!-- EDA_Histogram -->
<g id="node13" class="node">
<title>EDA_Histogram</title>
<polygon fill="lightgrey" stroke="black" points="222.43,-36 143.38,-36 143.38,0 222.43,0 222.43,-36"/>
<text text-anchor="middle" x="182.9" y="-14.5" font-family="Arial" font-size="10.00">Histograms</text>
</g>
<!-- EDA&#45;&gt;EDA_Histogram -->
<g id="edge6" class="edge">
<title>EDA&#45;&gt;EDA_Histogram</title>
<path fill="none" stroke="black" d="M258.5,-107.01C258.5,-76.43 258.5,-18 258.5,-18 258.5,-18 232.43,-18 232.43,-18"/>
<polygon fill="black" stroke="black" points="232.43,-15.2 224.43,-18 232.43,-20.8 232.43,-15.2"/>
</g>
<!-- EDA_BoxPlot -->
<g id="node14" class="node">
<title>EDA_BoxPlot</title>
<polygon fill="lightgrey" stroke="black" points="351.68,-36 280.13,-36 280.13,0 351.68,0 351.68,-36"/>
<text text-anchor="middle" x="315.9" y="-14.5" font-family="Arial" font-size="10.00">Box Plots</text>
</g>
<!-- EDA&#45;&gt;EDA_BoxPlot -->
<g id="edge7" class="edge">
<title>EDA&#45;&gt;EDA_BoxPlot</title>
<path fill="none" stroke="black" d="M315.9,-107.01C315.9,-107.01 315.9,-45.79 315.9,-45.79"/>
<polygon fill="black" stroke="black" points="318.7,-45.79 315.9,-37.79 313.1,-45.79 318.7,-45.79"/>
</g>
<!-- EDA_Correlation -->
<g id="node15" class="node">
<title>EDA_Correlation</title>
<polygon fill="lightgrey" stroke="black" points="525.8,-36 410,-36 410,0 525.8,0 525.8,-36"/>
<text text-anchor="middle" x="467.9" y="-14.5" font-family="Arial" font-size="10.00">Correlation Analysis</text>
</g>
<!-- EDA&#45;&gt;EDA_Correlation -->
<g id="edge8" class="edge">
<title>EDA&#45;&gt;EDA_Correlation</title>
<path fill="none" stroke="black" d="M379.35,-125C402.96,-125 423.31,-125 423.31,-125 423.31,-125 423.31,-45.66 423.31,-45.66"/>
<polygon fill="black" stroke="black" points="426.11,-45.66 423.31,-37.66 420.51,-45.66 426.11,-45.66"/>
</g>
<!-- SL -->
<g id="node5" class="node">
<title>SL</title>
<polygon fill="lightgreen" stroke="lightgreen" points="1111.55,-259.55 994.25,-259.55 994.25,-223.55 1111.55,-223.55 1111.55,-259.55"/>
<text text-anchor="middle" x="1052.9" y="-238.05" font-family="Arial" font-size="10.00">Supervised Learning</text>
</g>
<!-- SL_Regression -->
<g id="node8" class="node">
<title>SL_Regression</title>
<polygon fill="lightgrey" stroke="black" points="1036.3,-144.4 935.5,-144.4 935.5,-106 1036.3,-106 1036.3,-144.4"/>
<text text-anchor="middle" x="985.9" y="-127.7" font-family="Arial" font-size="10.00">Regression</text>
<text text-anchor="middle" x="985.9" y="-115.7" font-family="Arial" font-size="10.00">(Linear, Logistic)</text>
</g>
<!-- SL&#45;&gt;SL_Regression -->
<g id="edge1" class="edge">
<title>SL&#45;&gt;SL_Regression</title>
<path fill="none" stroke="black" d="M1015.28,-223.12C1015.28,-223.12 1015.28,-154.23 1015.28,-154.23"/>
<polygon fill="black" stroke="black" points="1018.08,-154.23 1015.28,-146.23 1012.48,-154.23 1018.08,-154.23"/>
</g>
<!-- SL_Classification -->
<g id="node9" class="node">
<title>SL_Classification</title>
<polygon fill="lightgrey" stroke="black" points="1181.93,-143.2 1093.88,-143.2 1093.88,-107.2 1181.93,-107.2 1181.93,-143.2"/>
<text text-anchor="middle" x="1137.9" y="-121.7" font-family="Arial" font-size="10.00">Classification</text>
</g>
<!-- SL&#45;&gt;SL_Classification -->
<g id="edge2" class="edge">
<title>SL&#45;&gt;SL_Classification</title>
<path fill="none" stroke="black" d="M1102.71,-223.12C1102.71,-223.12 1102.71,-153.06 1102.71,-153.06"/>
<polygon fill="black" stroke="black" points="1105.51,-153.06 1102.71,-145.06 1099.91,-153.06 1105.51,-153.06"/>
</g>
<!-- UL -->
<g id="node6" class="node">
<title>UL</title>
<polygon fill="lightyellow" stroke="lightyellow" points="1460.18,-259.55 1331.62,-259.55 1331.62,-223.55 1460.18,-223.55 1460.18,-259.55"/>
<text text-anchor="middle" x="1395.9" y="-238.05" font-family="Arial" font-size="10.00">Unsupervised Learning</text>
</g>
<!-- UL_Clustering -->
<g id="node10" class="node">
<title>UL_Clustering</title>
<polygon fill="lightgrey" stroke="black" points="1362.18,-144.4 1239.62,-144.4 1239.62,-106 1362.18,-106 1362.18,-144.4"/>
<text text-anchor="middle" x="1300.9" y="-127.7" font-family="Arial" font-size="10.00">Clustering</text>
<text text-anchor="middle" x="1300.9" y="-115.7" font-family="Arial" font-size="10.00">(K&#45;Means, DBSCAN)</text>
</g>
<!-- UL&#45;&gt;UL_Clustering -->
<g id="edge3" class="edge">
<title>UL&#45;&gt;UL_Clustering</title>
<path fill="none" stroke="black" d="M1346.9,-223.12C1346.9,-223.12 1346.9,-154.23 1346.9,-154.23"/>
<polygon fill="black" stroke="black" points="1349.7,-154.23 1346.9,-146.23 1344.1,-154.23 1349.7,-154.23"/>
</g>
<!-- UL_Dimensionality -->
<g id="node11" class="node">
<title>UL_Dimensionality</title>
<polygon fill="lightgrey" stroke="black" points="1561.18,-144.4 1420.62,-144.4 1420.62,-106 1561.18,-106 1561.18,-144.4"/>
<text text-anchor="middle" x="1490.9" y="-127.7" font-family="Arial" font-size="10.00">Dimensionality Reduction</text>
<text text-anchor="middle" x="1490.9" y="-115.7" font-family="Arial" font-size="10.00">(PCA, t&#45;SNE)</text>
</g>
<!-- UL&#45;&gt;UL_Dimensionality -->
<g id="edge4" class="edge">
<title>UL&#45;&gt;UL_Dimensionality</title>
<path fill="none" stroke="black" d="M1440.4,-223.12C1440.4,-223.12 1440.4,-154.23 1440.4,-154.23"/>
<polygon fill="black" stroke="black" points="1443.2,-154.23 1440.4,-146.23 1437.6,-154.23 1443.2,-154.23"/>
</g>
<!-- Regression_Linear -->
<g id="node16" class="node">
<title>Regression_Linear</title>
<polygon fill="lightgrey" stroke="black" points="707.68,-36 600.13,-36 600.13,0 707.68,0 707.68,-36"/>
<text text-anchor="middle" x="653.9" y="-14.5" font-family="Arial" font-size="10.00">Linear Regression</text>
</g>
<!-- Regression&#45;&gt;Regression_Linear -->
<g id="edge9" class="edge">
<title>Regression&#45;&gt;Regression_Linear</title>
<path fill="none" stroke="black" d="M798.39,-125C776.19,-125 752.9,-125 752.9,-125 752.9,-125 752.9,-18 752.9,-18 752.9,-18 717.55,-18 717.55,-18"/>
<polygon fill="black" stroke="black" points="717.55,-15.2 709.55,-18 717.55,-20.8 717.55,-15.2"/>
</g>
<!-- Regression_Polynomial -->
<g id="node17" class="node">
<title>Regression_Polynomial</title>
<polygon fill="lightgrey" stroke="black" points="894.55,-36 765.25,-36 765.25,0 894.55,0 894.55,-36"/>
<text text-anchor="middle" x="829.9" y="-14.5" font-family="Arial" font-size="10.00">Polynomial Regression</text>
</g>
<!-- Regression&#45;&gt;Regression_Polynomial -->
<g id="edge10" class="edge">
<title>Regression&#45;&gt;Regression_Polynomial</title>
<path fill="none" stroke="black" d="M824.85,-107.01C824.85,-107.01 824.85,-45.79 824.85,-45.79"/>
<polygon fill="black" stroke="black" points="827.65,-45.79 824.85,-37.79 822.05,-45.79 827.65,-45.79"/>
</g>
<!-- Regression_Logistic -->
<g id="node18" class="node">
<title>Regression_Logistic</title>
<polygon fill="lightgrey" stroke="black" points="1067.43,-36 952.38,-36 952.38,0 1067.43,0 1067.43,-36"/>
<text text-anchor="middle" x="1009.9" y="-14.5" font-family="Arial" font-size="10.00">Logistic Regression</text>
</g>
<!-- Regression&#45;&gt;Regression_Logistic -->
<g id="edge11" class="edge">
<title>Regression&#45;&gt;Regression_Logistic</title>
<path fill="none" stroke="black" d="M877.37,-125C896.34,-125 915.03,-125 915.03,-125 915.03,-125 915.03,-18 915.03,-18 915.03,-18 942.46,-18 942.46,-18"/>
<polygon fill="black" stroke="black" points="942.46,-20.8 950.46,-18 942.46,-15.2 942.46,-20.8"/>
</g>
<!-- Regression_Feature -->
<g id="node19" class="node">
<title>Regression_Feature</title>
<polygon fill="lightgrey" stroke="black" points="1238.68,-36 1125.12,-36 1125.12,0 1238.68,0 1238.68,-36"/>
<text text-anchor="middle" x="1181.9" y="-14.5" font-family="Arial" font-size="10.00">Feature Importance</text>
</g>
<!-- Regression&#45;&gt;Regression_Feature -->
<g id="edge12" class="edge">
<title>Regression&#45;&gt;Regression_Feature</title>
<path fill="none" stroke="black" d="M850.95,-106.81C850.95,-89.11 850.95,-65 850.95,-65 850.95,-65 1153.53,-65 1153.53,-65 1153.53,-65 1153.53,-45.82 1153.53,-45.82"/>
<polygon fill="black" stroke="black" points="1156.33,-45.82 1153.53,-37.82 1150.73,-45.82 1156.33,-45.82"/>
</g>
<!-- Logistic -->
<g id="node20" class="node">
<title>Logistic</title>
<polygon fill="pink" stroke="pink" points="1819.43,-260.75 1704.38,-260.75 1704.38,-222.35 1819.43,-222.35 1819.43,-260.75"/>
<text text-anchor="middle" x="1761.9" y="-244.05" font-family="Arial" font-size="10.00">Logistic Regression</text>
<text text-anchor="middle" x="1761.9" y="-232.05" font-family="Arial" font-size="10.00">(Day 2)</text>
</g>
<!-- Log_App -->
<g id="node24" class="node">
<title>Log_App</title>
<polygon fill="lightgrey" stroke="black" points="1730.55,-150.4 1619.25,-150.4 1619.25,-100 1730.55,-100 1730.55,-150.4"/>
<text text-anchor="middle" x="1674.9" y="-133.7" font-family="Arial" font-size="10.00">Applications:</text>
<text text-anchor="middle" x="1674.9" y="-121.7" font-family="Arial" font-size="10.00">Spam Detection,</text>
<text text-anchor="middle" x="1674.9" y="-109.7" font-family="Arial" font-size="10.00">Disease Prediction</text>
</g>
<!-- Logistic&#45;&gt;Log_App -->
<g id="edge13" class="edge">
<title>Logistic&#45;&gt;Log_App</title>
<path fill="none" stroke="black" d="M1717.46,-222.08C1717.46,-222.08 1717.46,-160.38 1717.46,-160.38"/>
<polygon fill="black" stroke="black" points="1720.26,-160.38 1717.46,-152.38 1714.66,-160.38 1720.26,-160.38"/>
</g>
<!-- Log_Prob -->
<g id="node25" class="node">
<title>Log_Prob</title>
<polygon fill="lightgrey" stroke="black" points="1909.43,-144.4 1788.38,-144.4 1788.38,-106 1909.43,-106 1909.43,-144.4"/>
<text text-anchor="middle" x="1848.9" y="-127.7" font-family="Arial" font-size="10.00">Predicts Probabilities</text>
<text text-anchor="middle" x="1848.9" y="-115.7" font-family="Arial" font-size="10.00">(0/1)</text>
</g>
<!-- Logistic&#45;&gt;Log_Prob -->
<g id="edge14" class="edge">
<title>Logistic&#45;&gt;Log_Prob</title>
<path fill="none" stroke="black" d="M1803.9,-222.08C1803.9,-222.08 1803.9,-154.25 1803.9,-154.25"/>
<polygon fill="black" stroke="black" points="1806.7,-154.25 1803.9,-146.25 1801.1,-154.25 1806.7,-154.25"/>
</g>
<!-- KMeans -->
<g id="node21" class="node">
<title>KMeans</title>
<polygon fill="lightyellow" stroke="lightyellow" points="2181.43,-260.75 2066.38,-260.75 2066.38,-222.35 2181.43,-222.35 2181.43,-260.75"/>
<text text-anchor="middle" x="2123.9" y="-244.05" font-family="Arial" font-size="10.00">K&#45;Means Clustering</text>
<text text-anchor="middle" x="2123.9" y="-232.05" font-family="Arial" font-size="10.00">(Day 2)</text>
</g>
<!-- K_App -->
<g id="node26" class="node">
<title>K_App</title>
<polygon fill="lightgrey" stroke="black" points="2102.18,-144.4 1967.62,-144.4 1967.62,-106 2102.18,-106 2102.18,-144.4"/>
<text text-anchor="middle" x="2034.9" y="-127.7" font-family="Arial" font-size="10.00">Applications:</text>
<text text-anchor="middle" x="2034.9" y="-115.7" font-family="Arial" font-size="10.00">Customer Segmentation</text>
</g>
<!-- KMeans&#45;&gt;K_App -->
<g id="edge15" class="edge">
<title>KMeans&#45;&gt;K_App</title>
<path fill="none" stroke="black" d="M2084.28,-222.08C2084.28,-222.08 2084.28,-154.25 2084.28,-154.25"/>
<polygon fill="black" stroke="black" points="2087.08,-154.25 2084.28,-146.25 2081.48,-154.25 2087.08,-154.25"/>
</g>
<!-- K_Steps -->
<g id="node27" class="node">
<title>K_Steps</title>
<polygon fill="lightgrey" stroke="black" points="2265.55,-156.4 2160.25,-156.4 2160.25,-94 2265.55,-94 2265.55,-156.4"/>
<text text-anchor="middle" x="2212.9" y="-139.7" font-family="Arial" font-size="10.00">Steps:</text>
<text text-anchor="middle" x="2212.9" y="-127.7" font-family="Arial" font-size="10.00">Choose K,</text>
<text text-anchor="middle" x="2212.9" y="-115.7" font-family="Arial" font-size="10.00">Assign Points,</text>
<text text-anchor="middle" x="2212.9" y="-103.7" font-family="Arial" font-size="10.00">Update Centroids</text>
</g>
<!-- KMeans&#45;&gt;K_Steps -->
<g id="edge16" class="edge">
<title>KMeans&#45;&gt;K_Steps</title>
<path fill="none" stroke="black" d="M2170.84,-222.08C2170.84,-222.08 2170.84,-166.11 2170.84,-166.11"/>
<polygon fill="black" stroke="black" points="2173.64,-166.11 2170.84,-158.11 2168.04,-166.11 2173.64,-166.11"/>
</g>
<!-- OverUnder -->
<g id="node22" class="node">
<title>OverUnder</title>
<polygon fill="orange" stroke="orange" points="2531.3,-260.75 2394.5,-260.75 2394.5,-222.35 2531.3,-222.35 2531.3,-260.75"/>
<text text-anchor="middle" x="2462.9" y="-244.05" font-family="Arial" font-size="10.00">Overfitting &amp; Underfitting</text>
<text text-anchor="middle" x="2462.9" y="-232.05" font-family="Arial" font-size="10.00">(Day 2)</text>
</g>
<!-- Over -->
<g id="node28" class="node">
<title>Over</title>
<polygon fill="lightgrey" stroke="black" points="2438.05,-150.4 2323.75,-150.4 2323.75,-100 2438.05,-100 2438.05,-150.4"/>
<text text-anchor="middle" x="2380.9" y="-133.7" font-family="Arial" font-size="10.00">Overfitting:</text>
<text text-anchor="middle" x="2380.9" y="-121.7" font-family="Arial" font-size="10.00">Too Complex,</text>
<text text-anchor="middle" x="2380.9" y="-109.7" font-family="Arial" font-size="10.00">Poor Generalization</text>
</g>
<!-- OverUnder&#45;&gt;Over -->
<g id="edge17" class="edge">
<title>OverUnder&#45;&gt;Over</title>
<path fill="none" stroke="black" d="M2416.28,-222.08C2416.28,-222.08 2416.28,-160.38 2416.28,-160.38"/>
<polygon fill="black" stroke="black" points="2419.08,-160.38 2416.28,-152.38 2413.48,-160.38 2419.08,-160.38"/>
</g>
<!-- Under -->
<g id="node29" class="node">
<title>Under</title>
<polygon fill="lightgrey" stroke="black" points="2595.93,-150.4 2495.88,-150.4 2495.88,-100 2595.93,-100 2595.93,-150.4"/>
<text text-anchor="middle" x="2545.9" y="-133.7" font-family="Arial" font-size="10.00">Underfitting:</text>
<text text-anchor="middle" x="2545.9" y="-121.7" font-family="Arial" font-size="10.00">Too Simple,</text>
<text text-anchor="middle" x="2545.9" y="-109.7" font-family="Arial" font-size="10.00">Misses Patterns</text>
</g>
<!-- OverUnder&#45;&gt;Under -->
<g id="edge18" class="edge">
<title>OverUnder&#45;&gt;Under</title>
<path fill="none" stroke="black" d="M2513.59,-222.08C2513.59,-222.08 2513.59,-160.38 2513.59,-160.38"/>
<polygon fill="black" stroke="black" points="2516.39,-160.38 2513.59,-152.38 2510.79,-160.38 2516.39,-160.38"/>
</g>
<!-- Eval -->
<g id="node23" class="node">
<title>Eval</title>
<polygon fill="purple" stroke="purple" points="2827.8,-260.75 2724,-260.75 2724,-222.35 2827.8,-222.35 2827.8,-260.75"/>
<text text-anchor="middle" x="2775.9" y="-244.05" font-family="Arial" font-size="10.00">Model Evaluation</text>
<text text-anchor="middle" x="2775.9" y="-232.05" font-family="Arial" font-size="10.00">(Day 2)</text>
</g>
<!-- CrossVal -->
<g id="node30" class="node">
<title>CrossVal</title>
<polygon fill="lightgrey" stroke="black" points="2753.93,-143.2 2653.88,-143.2 2653.88,-107.2 2753.93,-107.2 2753.93,-143.2"/>
<text text-anchor="middle" x="2703.9" y="-121.7" font-family="Arial" font-size="10.00">Cross&#45;Validation</text>
</g>
<!-- Eval&#45;&gt;CrossVal -->
<g id="edge19" class="edge">
<title>Eval&#45;&gt;CrossVal</title>
<path fill="none" stroke="black" d="M2738.96,-222.08C2738.96,-222.08 2738.96,-153.1 2738.96,-153.1"/>
<polygon fill="black" stroke="black" points="2741.76,-153.1 2738.96,-145.1 2736.16,-153.1 2741.76,-153.1"/>
</g>
<!-- Metrics -->
<g id="node31" class="node">
<title>Metrics</title>
<polygon fill="lightgrey" stroke="black" points="2884.05,-156.4 2811.75,-156.4 2811.75,-94 2884.05,-94 2884.05,-156.4"/>
<text text-anchor="middle" x="2847.9" y="-139.7" font-family="Arial" font-size="10.00">Metrics:</text>
<text text-anchor="middle" x="2847.9" y="-127.7" font-family="Arial" font-size="10.00">Accuracy,</text>
<text text-anchor="middle" x="2847.9" y="-115.7" font-family="Arial" font-size="10.00">Precision,</text>
<text text-anchor="middle" x="2847.9" y="-103.7" font-family="Arial" font-size="10.00">Recall</text>
</g>
<!-- Eval&#45;&gt;Metrics -->
<g id="edge20" class="edge">
<title>Eval&#45;&gt;Metrics</title>
<path fill="none" stroke="black" d="M2819.78,-222.08C2819.78,-222.08 2819.78,-166.11 2819.78,-166.11"/>
<polygon fill="black" stroke="black" points="2822.58,-166.11 2819.78,-158.11 2816.98,-166.11 2822.58,-166.11"/>
</g>
</g>
</svg>
